<svg width="83" height="134" viewBox="0 0 83 134" fill="none" xmlns="http://www.w3.org/2000/svg">
<path d="M30.1881 4.86859V2.90681H28.2263H8.86862C5.57602 2.90681 2.90684 5.57599 2.90684 8.86859V28.2263V30.188H4.86862H28.2263H30.1881V28.2263V4.86859Z" fill="white" stroke="black" stroke-width="3.92356"/>
<rect x="2.90684" y="28.1331" width="27.2812" height="27.2812" fill="white" stroke="black" stroke-width="3.92356"/>
<rect x="2.90684" y="53.3594" width="27.2812" height="27.2812" fill="white" stroke="black" stroke-width="3.92356"/>
<rect x="2.90684" y="78.5856" width="27.2812" height="27.2812" fill="white" stroke="black" stroke-width="3.92356"/>
<path d="M4.86862 103.812H2.90684V105.774V125.131C2.90684 128.424 5.57602 131.093 8.86862 131.093H24.2263C27.5189 131.093 30.1881 128.424 30.1881 125.131V105.774V103.812H28.2263H4.86862Z" fill="white" stroke="black" stroke-width="3.92356"/>
<rect x="28.1331" y="2.90681" width="27.2812" height="27.2812" fill="white" stroke="black" stroke-width="3.92356"/>
<rect x="28.1331" y="28.1331" width="27.2812" height="27.2812" fill="white" stroke="black" stroke-width="3.92356"/>
<rect x="28.1331" y="53.3594" width="27.2812" height="27.2812" fill="white" stroke="black" stroke-width="3.92356"/>
<path d="M55.3212 2.90681H53.3594V4.86859V28.2263V30.188H55.3212H78.6788H80.6406V28.2263V8.86859C80.6406 5.57599 77.9714 2.90681 74.6788 2.90681H55.3212Z" fill="white" stroke="black" stroke-width="3.92356"/>
<rect x="53.3594" y="28.1331" width="27.2812" height="27.2812" fill="white" stroke="black" stroke-width="3.92356"/>
<path d="M55.3212 53.3594H53.3594V55.3212V78.6788V80.6406H55.3212H74.6788C77.9714 80.6406 80.6406 77.9714 80.6406 74.6788V55.3212V53.3594H78.6788H55.3212Z" fill="white" stroke="black" stroke-width="3.92356"/>
</svg>
