<svg width="39" height="64" viewBox="0 0 39 64" fill="none" xmlns="http://www.w3.org/2000/svg">
<path d="M13.0663 0.934311V0.480667H12.6126H1.85923C1.09784 0.480667 0.480622 1.09789 0.480622 1.85927V12.6131V13.0668H0.934265H12.6126H13.0663V12.6131V0.934311Z" fill="white" stroke="black" stroke-width="0.907287"/>
<rect x="0.480622" y="13.0938" width="12.5857" height="12.5861" fill="white" stroke="black" stroke-width="0.907287"/>
<rect x="0.480622" y="25.7069" width="12.5857" height="12.5861" fill="white" stroke="black" stroke-width="0.907287"/>
<rect x="0.480622" y="38.3201" width="12.5857" height="12.5861" fill="white" stroke="black" stroke-width="0.907287"/>
<path d="M0.934265 50.9332H0.480622V51.3869V62.1407C0.480622 62.9021 1.09784 63.5193 1.85923 63.5193H11.6877C12.4491 63.5193 13.0663 62.9021 13.0663 62.1407V51.3869V50.9332H12.6126H0.934265Z" fill="white" stroke="black" stroke-width="0.907287"/>
<rect x="13.0933" y="0.480667" width="12.5857" height="12.5861" fill="white" stroke="black" stroke-width="0.907287"/>
<rect x="13.0933" y="13.0938" width="12.5857" height="12.5861" fill="white" stroke="black" stroke-width="0.907287"/>
<rect x="13.0933" y="25.7069" width="12.5857" height="12.5861" fill="white" stroke="black" stroke-width="0.907287"/>
<path d="M26.1596 0.480667H25.7059V0.934311V12.6131V13.0668H26.1596H37.838H38.2916V12.6131V1.85927C38.2916 1.09789 37.6744 0.480667 36.913 0.480667H26.1596Z" fill="white" stroke="black" stroke-width="0.907287"/>
<rect x="25.7059" y="13.0938" width="12.5857" height="12.5861" fill="white" stroke="black" stroke-width="0.907287"/>
<path d="M26.1596 25.7069H25.7059V26.1606V37.8394V38.2931H26.1596H36.913C37.6744 38.2931 38.2916 37.6758 38.2916 36.9145V26.1606V25.7069H37.838H26.1596Z" fill="white" stroke="black" stroke-width="0.907287"/>
</svg>
