<svg width="1156" height="278" viewBox="0 0 1156 278" fill="none" xmlns="http://www.w3.org/2000/svg">
<path d="M55.9618 4V2.03822H54H8C4.7074 2.03822 2.03822 4.7074 2.03822 8V54V55.9618H4H54H55.9618V54V4Z" stroke="black" stroke-width="3.92356"/>
<rect x="2.03822" y="56.0382" width="53.9236" height="53.9236" stroke="black" stroke-width="3.92356"/>
<rect x="2.03822" y="110.038" width="53.9236" height="53.9236" stroke="black" stroke-width="3.92356"/>
<rect x="2.03822" y="164.038" width="53.9236" height="53.9236" stroke="black" stroke-width="3.92356"/>
<path d="M4 218.038H2.03822V220V266C2.03822 269.293 4.7074 271.962 8 271.962H50C53.2926 271.962 55.9618 269.293 55.9618 266V220V218.038H54H4Z" stroke="black" stroke-width="3.92356"/>
<rect x="56.0382" y="2.03822" width="53.9236" height="53.9236" stroke="black" stroke-width="3.92356"/>
<rect x="56.0382" y="110.038" width="53.9236" height="53.9236" stroke="black" stroke-width="3.92356"/>
<path d="M112 2.03822H110.038V4V54V55.9618H112H162H163.962V54V8C163.962 4.7074 161.293 2.03822 158 2.03822H112Z" stroke="black" stroke-width="3.92356"/>
<rect x="110.038" y="56.0382" width="53.9236" height="53.9236" stroke="black" stroke-width="3.92356"/>
<path d="M112 110.038H110.038V112V162V163.962H112H158C161.293 163.962 163.962 161.293 163.962 158V112V110.038H162H112Z" stroke="black" stroke-width="3.92356"/>
<path d="M270 55.9618H271.962V54V8C271.962 4.7074 269.293 2.03822 266 2.03822H224C220.707 2.03822 218.038 4.7074 218.038 8V54V55.9618H220H270Z" stroke="black" stroke-width="3.92356"/>
<rect x="218.038" y="56.0382" width="53.9236" height="53.9236" stroke="black" stroke-width="3.92356"/>
<rect x="218.038" y="110.038" width="53.9236" height="53.9236" stroke="black" stroke-width="3.92356"/>
<rect x="218.038" y="164.038" width="53.9236" height="53.9236" stroke="black" stroke-width="3.92356"/>
<path d="M220 218.038H218.038V220V266C218.038 269.293 220.707 271.962 224 271.962H266C269.293 271.962 271.962 269.293 271.962 266V220V218.038H270H220Z" stroke="black" stroke-width="3.92356"/>
<path d="M485.962 58V56.0382H484H438C434.707 56.0382 432.038 58.7074 432.038 62V108V109.962H434H480C483.293 109.962 485.962 107.293 485.962 104V58Z" stroke="black" stroke-width="3.92356"/>
<path d="M434 164.038H432.038V166V212C432.038 215.293 434.707 217.962 438 217.962H484H485.962V216V170C485.962 166.707 483.293 164.038 480 164.038H434Z" stroke="black" stroke-width="3.92356"/>
<rect x="395.038" y="110.038" width="53.9236" height="53.9236" stroke="black" stroke-width="3.92356"/>
<path d="M360 56.0382H358.038V58V104C358.038 107.293 360.707 109.962 364 109.962H410H411.962V108V62C411.962 58.7074 409.293 56.0382 406 56.0382H360Z" stroke="black" stroke-width="3.92356"/>
<path d="M411.962 166V164.038H410H364C360.707 164.038 358.038 166.707 358.038 170V216V217.962H360H406C409.293 217.962 411.962 215.293 411.962 212V166Z" stroke="black" stroke-width="3.92356"/>
<path d="M378 55.9618H379.962V54V8C379.962 4.7074 377.293 2.03822 374 2.03822H332C328.707 2.03822 326.038 4.7074 326.038 8V50C326.038 53.2926 328.707 55.9618 332 55.9618H378Z" stroke="black" stroke-width="3.92356"/>
<path d="M379.962 220V218.038H378H332C328.707 218.038 326.038 220.707 326.038 224V266C326.038 269.293 328.707 271.962 332 271.962H374C377.293 271.962 379.962 269.293 379.962 266V220Z" stroke="black" stroke-width="3.92356"/>
<path d="M464.038 54V55.9618H466H512C515.293 55.9618 517.962 53.2926 517.962 50V8C517.962 4.7074 515.293 2.03822 512 2.03822H470C466.707 2.03822 464.038 4.7074 464.038 8V54Z" stroke="black" stroke-width="3.92356"/>
<path d="M466 218.038H464.038V220V266C464.038 269.293 466.707 271.962 470 271.962H512C515.293 271.962 517.962 269.293 517.962 266V224C517.962 220.707 515.293 218.038 512 218.038H466Z" stroke="black" stroke-width="3.92356"/>
<path d="M625.962 4V2.03822H624H578C574.707 2.03822 572.038 4.7074 572.038 8V54V55.9618H574H624H625.962V54V4Z" stroke="black" stroke-width="3.92356"/>
<rect x="572.038" y="56.0382" width="53.9236" height="53.9236" stroke="black" stroke-width="3.92356"/>
<rect x="572.038" y="110.038" width="53.9236" height="53.9236" stroke="black" stroke-width="3.92356"/>
<rect x="572.038" y="164.038" width="53.9236" height="53.9236" stroke="black" stroke-width="3.92356"/>
<path d="M574 218.038H572.038V220V266C572.038 269.293 574.707 271.962 578 271.962H624H625.962V270V220V218.038H624H574Z" stroke="black" stroke-width="3.92356"/>
<rect x="626.038" y="2.03822" width="53.9236" height="53.9236" stroke="black" stroke-width="3.92356"/>
<rect x="626.038" y="110.038" width="53.9236" height="53.9236" stroke="black" stroke-width="3.92356"/>
<rect x="626.038" y="218.038" width="53.9236" height="53.9236" stroke="black" stroke-width="3.92356"/>
<path d="M682 2.03822H680.038V4V54V55.9618H682H728C731.293 55.9618 733.962 53.2926 733.962 50V8C733.962 4.7074 731.293 2.03822 728 2.03822H682Z" stroke="black" stroke-width="3.92356"/>
<path d="M682 110.038H680.038V112V162V163.962H682H728C731.293 163.962 733.962 161.293 733.962 158V116C733.962 112.707 731.293 110.038 728 110.038H682Z" stroke="black" stroke-width="3.92356"/>
<path d="M682 218.038H680.038V220V270V271.962H682H728C731.293 271.962 733.962 269.293 733.962 266V224C733.962 220.707 731.293 218.038 728 218.038H682Z" stroke="black" stroke-width="3.92356"/>
<path d="M836 55.9618H837.962V54V8C837.962 4.7074 835.293 2.03822 832 2.03822H790C786.707 2.03822 784.038 4.7074 784.038 8V54V55.9618H786H836Z" stroke="black" stroke-width="3.92356"/>
<rect x="784.038" y="56.0382" width="53.9236" height="53.9236" stroke="black" stroke-width="3.92356"/>
<rect x="784.038" y="110.038" width="53.9236" height="53.9236" stroke="black" stroke-width="3.92356"/>
<rect x="784.038" y="164.038" width="53.9236" height="53.9236" stroke="black" stroke-width="3.92356"/>
<path d="M894 218.038H892.038V220V270V271.962H894H940C943.293 271.962 945.962 269.293 945.962 266V224C945.962 220.707 943.293 218.038 940 218.038H894Z" stroke="black" stroke-width="3.92356"/>
<rect x="838.038" y="218.038" width="53.9236" height="53.9236" stroke="black" stroke-width="3.92356"/>
<path d="M786 218.038H784.038V220V266C784.038 269.293 786.707 271.962 790 271.962H836H837.962V270V220V218.038H836H786Z" stroke="black" stroke-width="3.92356"/>
<path d="M1045.96 8V6.03822H1044H998C994.707 6.03822 992.038 8.7074 992.038 12V58V59.9618H994H1044H1045.96V58V8Z" stroke="black" stroke-width="3.92356"/>
<rect x="992.038" y="60.0382" width="53.9236" height="53.9236" stroke="black" stroke-width="3.92356"/>
<rect x="1100.04" y="61.0382" width="53.9236" height="53.9236" stroke="black" stroke-width="3.92356"/>
<rect x="1100.04" y="60.0382" width="53.9236" height="53.9236" stroke="black" stroke-width="3.92356"/>
<path d="M1102 6.03822H1100.04V8V58V59.9618H1102H1152H1153.96V58V12C1153.96 8.7074 1151.29 6.03822 1148 6.03822H1102Z" stroke="black" stroke-width="3.92356"/>
<rect x="1046.04" y="6.03822" width="53.9236" height="53.9236" stroke="black" stroke-width="3.92356"/>
<rect x="992.038" y="114.038" width="53.9236" height="53.9236" stroke="black" stroke-width="3.92356"/>
<rect x="1100.04" y="114.038" width="53.9236" height="53.9236" stroke="black" stroke-width="3.92356"/>
<rect x="992.038" y="168.038" width="53.9236" height="53.9236" stroke="black" stroke-width="3.92356"/>
<rect x="1100.04" y="168.038" width="53.9236" height="53.9236" stroke="black" stroke-width="3.92356"/>
<path d="M1102 222.038H1100.04V224V274V275.962H1102H1148C1151.29 275.962 1153.96 273.293 1153.96 270V224V222.038H1152H1102Z" stroke="black" stroke-width="3.92356"/>
<rect x="1046.04" y="222.038" width="53.9236" height="53.9236" stroke="black" stroke-width="3.92356"/>
<path d="M994 222.038H992.038V224V270C992.038 273.293 994.707 275.962 998 275.962H1044H1045.96V274V224V222.038H1044H994Z" stroke="black" stroke-width="3.92356"/>
</svg>
