<?xml version="1.0" standalone="no"?>
<!DOCTYPE svg PUBLIC "-//W3C//DTD SVG 20010904//EN"
 "http://www.w3.org/TR/2001/REC-SVG-20010904/DTD/svg10.dtd">
<svg version="1.0" xmlns="http://www.w3.org/2000/svg"
 width="700.000000pt" height="700.000000pt" viewBox="0 0 700.000000 700.000000"
 preserveAspectRatio="xMidYMid meet">
<metadata>
Created by potrace 1.14, written by Peter Selinger 2001-2017
</metadata>
<g transform="translate(0.000000,700.000000) scale(0.100000,-0.100000)"
fill="#000000" stroke="none">
<path d="M1798 6510 c-46 -14 -85 -48 -107 -93 l-21 -43 0 -2874 0 -2874 21
-44 c13 -26 38 -54 62 -70 l41 -27 493 -3 c319 -2 507 1 532 8 51 13 87 43
111 91 20 37 20 63 20 1159 l0 1120 1115 0 c981 0 1120 2 1152 15 50 21 72 42
94 90 18 38 19 111 19 1724 l0 1685 -21 44 c-13 26 -38 54 -62 70 l-41 27
-1690 2 c-930 1 -1703 -2 -1718 -7z m1062 -635 l0 -545 -545 0 -545 0 0 522 0
522 22 23 21 23 524 0 523 0 0 -545z m1190 0 l0 -545 -550 0 -550 0 0 545 0
545 550 0 550 0 0 -545z m1157 523 l23 -21 0 -524 0 -523 -545 0 -545 0 0 545
0 545 522 0 522 0 23 -22z m-1157 -1708 l0 -550 -550 0 -550 0 0 550 0 550
550 0 550 0 0 -550z m-1190 -5 l0 -545 -545 0 -545 0 0 545 0 545 545 0 545 0
0 -545z m2370 0 l0 -545 -545 0 -545 0 0 545 0 545 545 0 545 0 0 -545z
m-2370 -1185 l0 -550 -545 0 -545 0 0 550 0 550 545 0 545 0 0 -550z m1190 0
l0 -550 -550 0 -550 0 0 550 0 550 550 0 550 0 0 -550z m1180 29 c0 -320 -4
-527 -10 -539 -20 -37 -57 -40 -576 -40 l-504 0 0 550 0 550 545 0 545 0 0
-521z m-2370 -1214 l0 -545 -545 0 -545 0 0 545 0 545 545 0 545 0 0 -545z m0
-1155 c0 -539 -1 -557 -45 -574 -9 -3 -238 -6 -508 -6 -490 0 -491 0 -514 22
l-23 21 0 524 0 523 545 0 545 0 0 -510z"/>
</g>
</svg>
